<svg xmlns="http://www.w3.org/2000/svg" xmlns:xlink="http://www.w3.org/1999/xlink" width="2000" zoomAndPan="magnify" viewBox="0 550 1500 320" height="426.666667" preserveAspectRatio="xMidYMid meet" version="1.0"><defs><g/></defs><g fill="#000000" fill-opacity="1"><g transform="translate(19.223271, 847.124907)"><g><path d="M 17.703125 0 L 17.703125 -4.515625 C 23.015625 -6.128906 26.65625 -9.597656 28.625 -14.921875 C 30.59375 -20.242188 31.578125 -29.957031 31.578125 -44.0625 L 31.578125 -198.828125 C 31.578125 -213.171875 30.59375 -222.941406 28.625 -228.140625 C 26.65625 -233.347656 23.015625 -236.765625 17.703125 -238.390625 L 17.703125 -242.90625 L 100.625 -242.90625 C 124.457031 -242.90625 144.816406 -239.488281 161.703125 -232.65625 C 178.585938 -225.832031 192.347656 -216.753906 202.984375 -205.421875 C 213.628906 -194.085938 221.4375 -181.535156 226.40625 -167.765625 C 231.382812 -154.003906 233.875 -140.070312 233.875 -125.96875 C 234.101562 -101.675781 229.070312 -80.046875 218.78125 -61.078125 C 208.488281 -42.109375 193.914062 -27.1875 175.0625 -16.3125 C 156.207031 -5.4375 134.054688 0 108.609375 0 Z M 60.03125 -30.53125 C 60.03125 -22.4375 61.414062 -16.191406 64.1875 -11.796875 C 66.96875 -7.398438 73.101562 -5.203125 82.59375 -5.203125 L 107.921875 -5.203125 C 138.222656 -5.203125 161.523438 -13.9375 177.828125 -31.40625 C 194.140625 -48.875 202.296875 -75.765625 202.296875 -112.078125 C 202.296875 -135.210938 197.785156 -156.265625 188.765625 -175.234375 C 179.742188 -194.203125 166.441406 -209.351562 148.859375 -220.6875 C 131.273438 -232.019531 109.53125 -237.6875 83.625 -237.6875 L 60.03125 -237.6875 Z M 60.03125 -30.53125 "/></g></g></g><g fill="#000000" fill-opacity="1"><g transform="translate(286.409241, 847.124907)"><g><path d="M 17.703125 0 L 17.703125 -4.515625 C 23.015625 -6.128906 26.65625 -9.597656 28.625 -14.921875 C 30.59375 -20.242188 31.578125 -29.957031 31.578125 -44.0625 L 31.578125 -198.828125 C 31.578125 -213.171875 30.59375 -222.941406 28.625 -228.140625 C 26.65625 -233.347656 23.015625 -236.765625 17.703125 -238.390625 L 17.703125 -242.90625 L 179.046875 -242.90625 L 182.875 -197.796875 L 179.046875 -196.75 C 173.035156 -212.019531 164.648438 -222.660156 153.890625 -228.671875 C 143.140625 -234.679688 128.859375 -237.6875 111.046875 -237.6875 L 60.03125 -237.6875 L 60.03125 -132.546875 L 104.453125 -132.546875 C 117.628906 -132.546875 127.863281 -133.414062 135.15625 -135.15625 C 142.445312 -136.894531 147.769531 -139.554688 151.125 -143.140625 C 154.476562 -146.722656 156.847656 -151.0625 158.234375 -156.15625 L 162.390625 -156.15625 L 162.390625 -103.75 L 158.234375 -103.75 C 156.847656 -109.070312 154.476562 -113.46875 151.125 -116.9375 C 147.769531 -120.40625 142.445312 -123.003906 135.15625 -124.734375 C 127.863281 -126.472656 117.628906 -127.34375 104.453125 -127.34375 L 60.03125 -127.34375 L 60.03125 -20.8125 C 60.03125 -10.40625 65.234375 -5.203125 75.640625 -5.203125 L 120.75 -5.203125 C 137.40625 -5.203125 151.171875 -8.09375 162.046875 -13.875 C 172.921875 -19.664062 181.484375 -30.65625 187.734375 -46.84375 L 191.546875 -46.15625 L 188.765625 0 Z M 17.703125 0 "/></g></g></g><g fill="#000000" fill-opacity="1"><g transform="translate(506.403984, 847.124907)"><g><path d="M 17.703125 0 L 17.703125 -4.515625 C 23.015625 -6.128906 26.65625 -9.597656 28.625 -14.921875 C 30.59375 -20.242188 31.578125 -29.957031 31.578125 -44.0625 L 31.578125 -198.828125 C 31.578125 -213.171875 30.59375 -222.941406 28.625 -228.140625 C 26.65625 -233.347656 23.015625 -236.765625 17.703125 -238.390625 L 17.703125 -242.90625 L 98.890625 -242.90625 C 125.722656 -242.90625 144.976562 -238.796875 156.65625 -230.578125 C 168.34375 -222.367188 174.1875 -211.207031 174.1875 -197.09375 C 174.1875 -185.300781 170.019531 -174.546875 161.6875 -164.828125 C 153.363281 -155.109375 139.257812 -148.398438 119.375 -144.703125 C 138.34375 -143.773438 153.835938 -140.300781 165.859375 -134.28125 C 177.890625 -128.269531 186.796875 -120.519531 192.578125 -111.03125 C 198.367188 -101.550781 201.265625 -91.144531 201.265625 -79.8125 C 201.492188 -70.09375 199.640625 -60.488281 195.703125 -51 C 191.773438 -41.519531 185.414062 -32.960938 176.625 -25.328125 C 167.832031 -17.691406 156.207031 -11.5625 141.75 -6.9375 C 127.289062 -2.3125 109.535156 0 88.484375 0 Z M 60.03125 -35.390625 C 60.03125 -22.898438 61.1875 -14.742188 63.5 -10.921875 C 65.8125 -7.109375 70.671875 -5.203125 78.078125 -5.203125 L 91.609375 -5.203125 C 110.578125 -5.203125 125.726562 -8.035156 137.0625 -13.703125 C 148.394531 -19.367188 156.664062 -27.175781 161.875 -37.125 C 167.082031 -47.070312 169.6875 -58.410156 169.6875 -71.140625 C 169.6875 -84.554688 167.140625 -96.410156 162.046875 -106.703125 C 156.960938 -116.992188 148.925781 -125.144531 137.9375 -131.15625 C 126.945312 -137.175781 112.773438 -140.1875 95.421875 -140.1875 L 60.03125 -140.1875 Z M 60.03125 -145.390625 L 92.296875 -145.390625 C 109.421875 -145.390625 122.085938 -149.785156 130.296875 -158.578125 C 138.503906 -167.367188 142.609375 -178.125 142.609375 -190.84375 C 142.609375 -205.1875 137.691406 -216.578125 127.859375 -225.015625 C 118.035156 -233.460938 104.21875 -237.6875 86.40625 -237.6875 L 60.03125 -237.6875 Z M 60.03125 -145.390625 "/></g></g></g><g fill="#000000" fill-opacity="1"><g transform="translate(734.379567, 847.124907)"><g><path d="M 17.703125 0 L 17.703125 -4.515625 C 23.015625 -6.128906 26.65625 -9.597656 28.625 -14.921875 C 30.59375 -20.242188 31.578125 -29.957031 31.578125 -44.0625 L 31.578125 -198.828125 C 31.578125 -213.171875 30.59375 -222.941406 28.625 -228.140625 C 26.65625 -233.347656 23.015625 -236.765625 17.703125 -238.390625 L 17.703125 -242.90625 L 98.890625 -242.90625 C 125.722656 -242.90625 144.976562 -238.796875 156.65625 -230.578125 C 168.34375 -222.367188 174.1875 -211.207031 174.1875 -197.09375 C 174.1875 -185.300781 170.019531 -174.546875 161.6875 -164.828125 C 153.363281 -155.109375 139.257812 -148.398438 119.375 -144.703125 C 138.34375 -143.773438 153.835938 -140.300781 165.859375 -134.28125 C 177.890625 -128.269531 186.796875 -120.519531 192.578125 -111.03125 C 198.367188 -101.550781 201.265625 -91.144531 201.265625 -79.8125 C 201.492188 -70.09375 199.640625 -60.488281 195.703125 -51 C 191.773438 -41.519531 185.414062 -32.960938 176.625 -25.328125 C 167.832031 -17.691406 156.207031 -11.5625 141.75 -6.9375 C 127.289062 -2.3125 109.535156 0 88.484375 0 Z M 60.03125 -35.390625 C 60.03125 -22.898438 61.1875 -14.742188 63.5 -10.921875 C 65.8125 -7.109375 70.671875 -5.203125 78.078125 -5.203125 L 91.609375 -5.203125 C 110.578125 -5.203125 125.726562 -8.035156 137.0625 -13.703125 C 148.394531 -19.367188 156.664062 -27.175781 161.875 -37.125 C 167.082031 -47.070312 169.6875 -58.410156 169.6875 -71.140625 C 169.6875 -84.554688 167.140625 -96.410156 162.046875 -106.703125 C 156.960938 -116.992188 148.925781 -125.144531 137.9375 -131.15625 C 126.945312 -137.175781 112.773438 -140.1875 95.421875 -140.1875 L 60.03125 -140.1875 Z M 60.03125 -145.390625 L 92.296875 -145.390625 C 109.421875 -145.390625 122.085938 -149.785156 130.296875 -158.578125 C 138.503906 -167.367188 142.609375 -178.125 142.609375 -190.84375 C 142.609375 -205.1875 137.691406 -216.578125 127.859375 -225.015625 C 118.035156 -233.460938 104.21875 -237.6875 86.40625 -237.6875 L 60.03125 -237.6875 Z M 60.03125 -145.390625 "/></g></g></g><g fill="#000000" fill-opacity="1"><g transform="translate(962.35515, 847.124907)"><g><path d="M 17.703125 0 L 17.703125 -4.515625 C 23.015625 -6.128906 26.65625 -9.597656 28.625 -14.921875 C 30.59375 -20.242188 31.578125 -29.957031 31.578125 -44.0625 L 31.578125 -198.828125 C 31.578125 -213.171875 30.59375 -222.941406 28.625 -228.140625 C 26.65625 -233.347656 23.015625 -236.765625 17.703125 -238.390625 L 17.703125 -242.90625 L 73.90625 -242.90625 L 73.90625 -238.390625 C 68.59375 -236.765625 64.953125 -233.347656 62.984375 -228.140625 C 61.015625 -222.941406 60.03125 -213.171875 60.03125 -198.828125 L 60.03125 -44.0625 C 60.03125 -29.957031 61.015625 -20.242188 62.984375 -14.921875 C 64.953125 -9.597656 68.59375 -6.128906 73.90625 -4.515625 L 73.90625 0 Z M 17.703125 0 "/></g></g></g><g fill="#000000" fill-opacity="1"><g transform="translate(1069.576759, 847.124907)"><g><path d="M 17.703125 0 L 17.703125 -4.515625 C 23.015625 -6.128906 26.65625 -9.597656 28.625 -14.921875 C 30.59375 -20.242188 31.578125 -29.957031 31.578125 -44.0625 L 31.578125 -198.828125 C 31.578125 -213.171875 30.59375 -222.941406 28.625 -228.140625 C 26.65625 -233.347656 23.015625 -236.765625 17.703125 -238.390625 L 17.703125 -242.90625 L 179.046875 -242.90625 L 182.875 -197.796875 L 179.046875 -196.75 C 173.035156 -212.019531 164.648438 -222.660156 153.890625 -228.671875 C 143.140625 -234.679688 128.859375 -237.6875 111.046875 -237.6875 L 60.03125 -237.6875 L 60.03125 -132.546875 L 104.453125 -132.546875 C 117.628906 -132.546875 127.863281 -133.414062 135.15625 -135.15625 C 142.445312 -136.894531 147.769531 -139.554688 151.125 -143.140625 C 154.476562 -146.722656 156.847656 -151.0625 158.234375 -156.15625 L 162.390625 -156.15625 L 162.390625 -103.75 L 158.234375 -103.75 C 156.847656 -109.070312 154.476562 -113.46875 151.125 -116.9375 C 147.769531 -120.40625 142.445312 -123.003906 135.15625 -124.734375 C 127.863281 -126.472656 117.628906 -127.34375 104.453125 -127.34375 L 60.03125 -127.34375 L 60.03125 -20.8125 C 60.03125 -10.40625 65.234375 -5.203125 75.640625 -5.203125 L 120.75 -5.203125 C 137.40625 -5.203125 151.171875 -8.09375 162.046875 -13.875 C 172.921875 -19.664062 181.484375 -30.65625 187.734375 -46.84375 L 191.546875 -46.15625 L 188.765625 0 Z M 17.703125 0 "/></g></g></g><g fill="#000000" fill-opacity="1"><g transform="translate(1289.571458, 847.124907)"><g><path d="M 98.890625 3.46875 C 80.617188 3.46875 64.195312 0.808594 49.625 -4.5 C 35.050781 -9.820312 23.710938 -15.378906 15.609375 -21.171875 L 13.875 -69.40625 L 17.703125 -70.09375 C 22.328125 -58.0625 28.394531 -46.898438 35.90625 -36.609375 C 43.425781 -26.316406 52.96875 -18.101562 64.53125 -11.96875 C 76.101562 -5.84375 89.867188 -2.78125 105.828125 -2.78125 C 115.085938 -2.78125 123.648438 -4.6875 131.515625 -8.5 C 139.378906 -12.320312 145.679688 -17.703125 150.421875 -24.640625 C 155.160156 -31.578125 157.53125 -39.671875 157.53125 -48.921875 C 157.53125 -57.710938 155.21875 -65.347656 150.59375 -71.828125 C 145.96875 -78.304688 139.953125 -83.972656 132.546875 -88.828125 C 125.148438 -93.691406 117.34375 -97.914062 109.125 -101.5 C 100.914062 -105.082031 93.109375 -108.378906 85.703125 -111.390625 C 72.054688 -116.941406 60.203125 -122.550781 50.140625 -128.21875 C 40.078125 -133.882812 32.328125 -140.707031 26.890625 -148.6875 C 21.453125 -156.664062 18.734375 -166.785156 18.734375 -179.046875 C 18.734375 -192.703125 22.257812 -204.441406 29.3125 -214.265625 C 36.375 -224.097656 46.265625 -231.734375 58.984375 -237.171875 C 71.710938 -242.609375 86.519531 -245.328125 103.40625 -245.328125 C 119.132812 -245.328125 132.664062 -243.59375 144 -240.125 C 155.34375 -236.65625 164.367188 -233.066406 171.078125 -229.359375 L 172.453125 -189.109375 L 168.984375 -188.078125 C 162.503906 -203.109375 153.078125 -215.484375 140.703125 -225.203125 C 128.328125 -234.921875 112.191406 -239.78125 92.296875 -239.78125 C 83.046875 -239.78125 74.429688 -237.984375 66.453125 -234.390625 C 58.472656 -230.804688 52.109375 -225.660156 47.359375 -218.953125 C 42.617188 -212.242188 40.25 -203.914062 40.25 -193.96875 C 40.25 -185.875 42.210938 -178.816406 46.140625 -172.796875 C 50.078125 -166.785156 55.285156 -161.582031 61.765625 -157.1875 C 68.242188 -152.789062 75.300781 -148.914062 82.9375 -145.5625 C 90.570312 -142.207031 98.085938 -139.03125 105.484375 -136.03125 C 118.441406 -130.9375 130.585938 -125.5 141.921875 -119.71875 C 153.253906 -113.9375 162.445312 -106.878906 169.5 -98.546875 C 176.5625 -90.222656 180.09375 -79.46875 180.09375 -66.28125 C 180.09375 -51.9375 176.160156 -39.5 168.296875 -28.96875 C 160.429688 -18.445312 150.3125 -10.410156 137.9375 -4.859375 C 125.5625 0.691406 112.546875 3.46875 98.890625 3.46875 Z M 98.890625 3.46875 "/></g></g></g><g fill="#000000" fill-opacity="1"><g transform="translate(1271.15191, 674.77681)"><g><path d="M 15.5 -102.734375 C 15.3125 -105.535156 15.742188 -107.773438 16.796875 -109.453125 C 17.847656 -111.128906 19.382812 -111.882812 21.40625 -111.71875 C 23.425781 -111.539062 24.8125 -110.535156 25.5625 -108.703125 C 26.3125 -106.867188 26.359375 -104.59375 25.703125 -101.875 L 18.5625 -70.671875 L 17.28125 -70.78125 Z M 15.5 -102.734375 "/></g></g></g></svg>